M48
; DRILL file {KiCad 9.0.4} date 2025-09-21T20:30:15+0530
; FORMAT={-:-/ absolute / metric / decimal}
; #@! TF.CreationDate,2025-09-21T20:30:15+05:30
; #@! TF.GenerationSoftware,Kicad,Pcbnew,9.0.4
; #@! TF.FileFunction,MixedPlating,1,2
FMAT,2
METRIC
; #@! TA.AperFunction,Plated,PTH,ComponentDrill
T1C0.800
; #@! TA.AperFunction,Plated,PTH,ComponentDrill
T2C0.900
; #@! TA.AperFunction,Plated,PTH,ComponentDrill
T3C1.000
; #@! TA.AperFunction,Plated,PTH,ComponentDrill
T4C1.100
; #@! TA.AperFunction,Plated,PTH,ComponentDrill
T5C1.200
; #@! TA.AperFunction,Plated,PTH,ComponentDrill
T6C1.520
%
G90
G05
T1
X105.19Y-80.5
X112.81Y-80.5
X115.88Y-99.0
X117.0Y-80.5
X122.0Y-80.5
X123.5Y-99.0
X128.5Y-92.0
X128.5Y-99.62
X133.0Y-92.0
X133.0Y-99.62
T2
X116.46Y-106.5
X119.0Y-106.5
X128.5Y-81.0
X128.5Y-88.62
X132.5Y-81.0
X132.5Y-88.62
T3
X118.132Y-90.5
X123.132Y-90.5
X138.7Y-84.0
X142.5Y-84.0
T4
X105.875Y-101.0
X105.875Y-111.16
X106.0Y-86.5
X106.0Y-96.66
X111.5Y-86.5
X111.5Y-96.66
X111.5Y-101.0
X111.5Y-111.16
X124.42Y-107.45
X126.96Y-107.45
X129.5Y-107.45
T5
X98.0Y-80.5
X98.0Y-95.5
T6
X97.5Y-101.46
X97.5Y-106.54
X139.46Y-96.5
X144.54Y-96.5
M30
